HIERARCHY
ROOT mixamorig:Hips
{
	OFFSET 0.00 0.00 0.00
	CHANNELS 6 Xposition Yposition Zposition Zrotation Yrotation Xrotation
	JOINT mixamorig:Spine
	{
		OFFSET	0.0000	9.9235	-1.2273
		CHANNELS 3 Zrotation Yrotation Xrotation
		JOINT mixamorig:Spine1
		{
			OFFSET	-0.0001	11.6454	-1.4223
			CHANNELS 3 Zrotation Yrotation Xrotation
			JOINT mixamorig:Spine2
			{
				OFFSET	0.0001	13.3602	-1.6265
				CHANNELS 3 Zrotation Yrotation Xrotation
				JOINT mixamorig:Neck
				{
					OFFSET	0.0000	15.0325	0.7929
					CHANNELS 3 Zrotation Yrotation Xrotation
					JOINT mixamorig:Head
					{
						OFFSET	0.0000	10.3218	3.1424
						CHANNELS 3 Zrotation Yrotation Xrotation
						JOINT mixamorig:HeadTop_End
						{
							OFFSET	0.0002	18.4747	6.6364
							CHANNELS 3 Zrotation Yrotation Xrotation
							End Site
							{
								OFFSET 0.0000 0.0000 0.0000
							}
						}
						JOINT mixamorig:LeftEye
						{
							OFFSET	2.9479	7.6817	9.1207
							CHANNELS 3 Zrotation Yrotation Xrotation
							End Site
							{
								OFFSET 0.0000 0.0000 0.0000
							}
						}
						JOINT mixamorig:RightEye
						{
							OFFSET	-2.9445	7.6817	9.1205
							CHANNELS 3 Zrotation Yrotation Xrotation
							End Site
							{
								OFFSET 0.0000 0.0000 0.0000
							}
						}
					}
				}
				JOINT mixamorig:LeftShoulder
				{
					OFFSET	6.1058	9.1104	0.7056
					CHANNELS 3 Zrotation Yrotation Xrotation
					JOINT mixamorig:LeftArm
					{
						OFFSET	12.6532	-0.3431	-2.6009
						CHANNELS 3 Zrotation Yrotation Xrotation
						JOINT mixamorig:LeftForeArm
						{
							OFFSET	27.3517	-0.9645	-1.4034
							CHANNELS 3 Zrotation Yrotation Xrotation
							JOINT mixamorig:LeftHand
							{
								OFFSET	27.5619	-0.7072	1.5501
								CHANNELS 3 Zrotation Yrotation Xrotation
								JOINT mixamorig:LeftHandMiddle1
								{
									OFFSET	12.6631	-1.3962	0.9548
									CHANNELS 3 Zrotation Yrotation Xrotation
									JOINT mixamorig:LeftHandMiddle2
									{
										OFFSET	3.6093	-0.1669	0.0778
										CHANNELS 3 Zrotation Yrotation Xrotation
										JOINT mixamorig:LeftHandMiddle3
										{
											OFFSET	3.4005	-0.6274	0.1147
											CHANNELS 3 Zrotation Yrotation Xrotation
											End Site
											{
												OFFSET 3.6205 -0.6493 0.1199
											}
										}
									}
								}
								JOINT mixamorig:LeftHandThumb1
								{
									OFFSET	3.3268	-2.0475	3.5790
									CHANNELS 3 Zrotation Yrotation Xrotation
									JOINT mixamorig:LeftHandThumb2
									{
										OFFSET	3.4890	-1.4806	2.8548
										CHANNELS 3 Zrotation Yrotation Xrotation
										JOINT mixamorig:LeftHandThumb3
										{
											OFFSET	3.4086	-1.7658	2.1133
											CHANNELS 3 Zrotation Yrotation Xrotation
											End Site
											{
												OFFSET 2.7231 -1.1597 1.7902
											}
										}
									}
								}
								JOINT mixamorig:LeftHandIndex1
								{
									OFFSET	11.9722	-1.1061	3.7324
									CHANNELS 3 Zrotation Yrotation Xrotation
									JOINT mixamorig:LeftHandIndex2
									{
										OFFSET	3.8388	-0.6406	-0.0310
										CHANNELS 3 Zrotation Yrotation Xrotation
										JOINT mixamorig:LeftHandIndex3
										{
											OFFSET	3.3346	-0.7374	-0.0133
											CHANNELS 3 Zrotation Yrotation Xrotation
											End Site
											{
												OFFSET 2.9714 -0.8030 0.0009
											}
										}
									}
								}
								JOINT mixamorig:LeftHandRing1
								{
									OFFSET	12.1659	-1.6805	-1.2769
									CHANNELS 3 Zrotation Yrotation Xrotation
									JOINT mixamorig:LeftHandRing2
									{
										OFFSET	3.5926	-0.2366	-0.0771
										CHANNELS 3 Zrotation Yrotation Xrotation
										JOINT mixamorig:LeftHandRing3
										{
											OFFSET	3.2906	-0.3266	-0.0615
											CHANNELS 3 Zrotation Yrotation Xrotation
											End Site
											{
												OFFSET 3.5423 -0.9211 -0.0200
											}
										}
									}
								}
								JOINT mixamorig:LeftHandPinky1
								{
									OFFSET	11.0508	-2.1872	-3.8040
									CHANNELS 3 Zrotation Yrotation Xrotation
									JOINT mixamorig:LeftHandPinky2
									{
										OFFSET	4.1236	-0.3047	0.1212
										CHANNELS 3 Zrotation Yrotation Xrotation
										JOINT mixamorig:LeftHandPinky3
										{
											OFFSET	2.5805	-0.2597	0.0823
											CHANNELS 3 Zrotation Yrotation Xrotation
											End Site
											{
												OFFSET 2.9027 -0.3379 0.0963
											}
										}
									}
								}
							}
						}
					}
				}
				JOINT mixamorig:RightShoulder
				{
					OFFSET	-6.1057	9.1105	0.7056
					CHANNELS 3 Zrotation Yrotation Xrotation
					JOINT mixamorig:RightArm
					{
						OFFSET	-12.6532	-0.3429	-2.6009
						CHANNELS 3 Zrotation Yrotation Xrotation
						JOINT mixamorig:RightForeArm
						{
							OFFSET	-27.3517	-0.9641	-1.4034
							CHANNELS 3 Zrotation Yrotation Xrotation
							JOINT mixamorig:RightHand
							{
								OFFSET	-27.5619	-0.7068	1.5501
								CHANNELS 3 Zrotation Yrotation Xrotation
								JOINT mixamorig:RightHandMiddle1
								{
									OFFSET	-12.6631	-1.3960	0.9549
									CHANNELS 3 Zrotation Yrotation Xrotation
									JOINT mixamorig:RightHandMiddle2
									{
										OFFSET	-3.6093	-0.1669	0.0778
										CHANNELS 3 Zrotation Yrotation Xrotation
										JOINT mixamorig:RightHandMiddle3
										{
											OFFSET	-3.4005	-0.6273	0.1148
											CHANNELS 3 Zrotation Yrotation Xrotation
											End Site
											{
												OFFSET -3.6205 -0.6492 0.1199
											}
										}
									}
								}
								JOINT mixamorig:RightHandThumb1
								{
									OFFSET	-3.3269	-2.0474	3.5791
									CHANNELS 3 Zrotation Yrotation Xrotation
									JOINT mixamorig:RightHandThumb2
									{
										OFFSET	-3.4890	-1.4805	2.8548
										CHANNELS 3 Zrotation Yrotation Xrotation
										JOINT mixamorig:RightHandThumb3
										{
											OFFSET	-3.4086	-1.7658	2.1133
											CHANNELS 3 Zrotation Yrotation Xrotation
											End Site
											{
												OFFSET -2.7231 -1.1596 1.7902
											}
										}
									}
								}
								JOINT mixamorig:RightHandIndex1
								{
									OFFSET	-11.9722	-1.1059	3.7325
									CHANNELS 3 Zrotation Yrotation Xrotation
									JOINT mixamorig:RightHandIndex2
									{
										OFFSET	-3.8388	-0.6406	-0.0310
										CHANNELS 3 Zrotation Yrotation Xrotation
										JOINT mixamorig:RightHandIndex3
										{
											OFFSET	-3.3346	-0.7373	-0.0133
											CHANNELS 3 Zrotation Yrotation Xrotation
											End Site
											{
												OFFSET -2.9714 -0.8029 0.0009
											}
										}
									}
								}
								JOINT mixamorig:RightHandRing1
								{
									OFFSET	-12.1659	-1.6803	-1.2769
									CHANNELS 3 Zrotation Yrotation Xrotation
									JOINT mixamorig:RightHandRing2
									{
										OFFSET	-3.5926	-0.2366	-0.0771
										CHANNELS 3 Zrotation Yrotation Xrotation
										JOINT mixamorig:RightHandRing3
										{
											OFFSET	-3.2906	-0.3265	-0.0615
											CHANNELS 3 Zrotation Yrotation Xrotation
											End Site
											{
												OFFSET -3.5423 -0.9210 -0.0200
											}
										}
									}
								}
								JOINT mixamorig:RightHandPinky1
								{
									OFFSET	-11.0508	-2.1870	-3.8040
									CHANNELS 3 Zrotation Yrotation Xrotation
									JOINT mixamorig:RightHandPinky2
									{
										OFFSET	-4.1236	-0.3046	0.1212
										CHANNELS 3 Zrotation Yrotation Xrotation
										JOINT mixamorig:RightHandPinky3
										{
											OFFSET	-2.5805	-0.2597	0.0823
											CHANNELS 3 Zrotation Yrotation Xrotation
											End Site
											{
												OFFSET -2.9027 -0.3379 0.0963
											}
										}
									}
								}
							}
						}
					}
				}
			}
		}
	}
	JOINT mixamorig:RightUpLeg
	{
		OFFSET	-9.1245	-6.6564	-0.0554
		CHANNELS 3 Zrotation Yrotation Xrotation
		JOINT mixamorig:RightLeg
		{
			OFFSET	-0.0000	-40.5610	-1.7663
			CHANNELS 3 Zrotation Yrotation Xrotation
			JOINT mixamorig:RightFoot
			{
				OFFSET	0.4978	-41.9625	-3.3512
				CHANNELS 3 Zrotation Yrotation Xrotation
				JOINT mixamorig:RightToeBase
				{
					OFFSET	-0.3734	-10.4922	12.6407
					CHANNELS 3 Zrotation Yrotation Xrotation
					End Site
					{
						OFFSET 0.0000 -0.0000 9.9925
					}
				}
			}
		}
	}
	JOINT mixamorig:LeftUpLeg
	{
		OFFSET	9.1245	-6.6564	-0.0554
		CHANNELS 3 Zrotation Yrotation Xrotation
		JOINT mixamorig:LeftLeg
		{
			OFFSET	0.0000	-40.5610	-1.7663
			CHANNELS 3 Zrotation Yrotation Xrotation
			JOINT mixamorig:LeftFoot
			{
				OFFSET	-0.4978	-41.9625	-3.3512
				CHANNELS 3 Zrotation Yrotation Xrotation
				JOINT mixamorig:LeftToeBase
				{
					OFFSET	0.3734	-10.4922	12.6407
					CHANNELS 3 Zrotation Yrotation Xrotation
					End Site
					{
						OFFSET -0.0000 -0.0000 9.9925
					}
				}
			}
		}
	}
}
MOTION
Frames: 4
Frame Time: 0.0333333
-0.0041 98.5454 -0.2440 1.2938 3.5597 -4.6328 0.6373 -5.2550 8.9371 -1.5030 -1.3899 2.9442 -1.4702 -1.3213 2.9709 3.2404 -0.6140 -0.3483 -0.8139 1.3242 -13.6584 0.0000 -0.0000 0.0000 0.0000 -0.0000 0.0000 0.0000 -0.0000 0.0000 -8.7739 -0.7302 0.6951 -58.9181 -10.5308 11.3845 3.5248 -74.5258 -5.3377 -23.1064 6.7795 -117.0768 -72.3346 -13.8023 3.3653 -59.0773 -2.1533 2.5953 9.3338 0.5526 -0.1697 11.8350 -37.6728 8.7584 -4.7253 -0.2531 -17.9028 9.1909 10.7573 -8.1336 -64.0401 -17.3879 0.7469 -68.4924 -3.2570 0.9849 17.6350 0.9457 0.4282 -70.5843 -11.8673 3.0985 -70.9371 -3.8755 0.7587 8.6979 0.6914 0.2867 -64.9588 -8.4171 2.9553 -66.8567 -2.1819 3.3712 11.4696 0.7213 -0.2263 -1.3262 16.3632 7.3860 61.8055 2.3500 13.0094 -169.3538 80.1106 -171.4890 31.8970 -3.7419 -16.1294 75.2157 -2.5063 5.2002 101.2876 3.2039 6.4780 92.7353 3.4544 5.8808 20.0727 30.2083 66.9121 1.4983 -33.0517 -16.8361 -43.3648 -49.6003 38.6483 13.9317 12.6993 -1.4469 47.7815 3.4117 0.5004 100.0439 5.3396 3.7176 77.3159 3.7007 4.9834 80.2202 5.5042 2.1030 28.9778 2.2389 -0.1758 81.9223 -0.4948 5.7335 48.0813 2.9325 2.5190 78.8131 3.3829 5.0209 3.8955 -6.3106 -7.9906 -0.1480 0.9573 16.4149 -5.3435 0.1891 -4.1865 -0.0000 -0.0000 0.0000 -2.1929 5.8910 -27.9688 5.2467 -4.0821 60.1020 -2.0269 2.9610 2.9187 -0.0000 -0.0000 0.0056 
0.1686 98.8821 -0.6455 1.9150 2.8035 -4.4192 0.2537 -4.6326 8.8494 -1.6063 -1.2243 2.9328 -1.5814 -1.1772 2.9568 3.3212 -0.6591 -0.3726 -0.9769 1.2728 -13.7875 0.0000 -0.0000 0.0000 0.0000 -0.0000 0.0000 0.0000 -0.0000 0.0000 -8.7739 -0.7302 0.6951 -58.8681 -10.5794 11.3292 3.6465 -74.8645 -5.4638 -23.1587 7.1080 -117.0448 -72.3346 -13.8023 3.3653 -59.0772 -2.1533 2.5953 9.3338 0.5526 -0.1696 11.8350 -37.6728 8.7584 -4.7253 -0.2531 -17.9028 9.1909 10.7573 -8.1336 -64.0402 -17.3879 0.7469 -68.4924 -3.2570 0.9849 17.6350 0.9457 0.4282 -70.5843 -11.8673 3.0985 -70.9371 -3.8755 0.7586 8.6979 0.6914 0.2867 -64.9588 -8.4171 2.9553 -66.8567 -2.1819 3.3712 11.4696 0.7213 -0.2263 -1.0066 16.4099 7.4651 61.4366 2.1965 12.8032 -169.6095 79.8077 -171.7486 31.9036 -3.7091 -16.2867 75.2157 -2.5063 5.2002 101.2876 3.2038 6.4780 92.7352 3.4544 5.8808 20.0727 30.2083 66.9121 1.4983 -33.0517 -16.8361 -43.3648 -49.6003 38.6483 13.9317 12.6993 -1.4469 47.7815 3.4117 0.5004 100.0439 5.3397 3.7176 77.3158 3.7007 4.9834 80.2202 5.5042 2.1030 28.9778 2.2389 -0.1758 81.9223 -0.4948 5.7336 48.0813 2.9326 2.5190 78.8131 3.3829 5.0209 2.9037 -6.2392 -4.5852 0.2334 1.6569 14.0678 -5.2849 0.1053 -5.3254 -0.0000 -0.0000 -0.0072 -3.6679 5.8565 -30.0598 5.2831 -3.3000 52.9156 -2.1681 3.6260 1.5924 0.0000 0.0000 0.4822 
0.3395 98.9418 -1.0956 2.2822 2.2254 -4.0323 0.0735 -4.1747 8.6014 -1.6915 -1.0393 2.8824 -1.6886 -1.0135 2.9028 3.4118 -0.7026 -0.3984 -1.0755 1.2245 -13.9174 0.0000 -0.0000 0.0000 0.0000 -0.0000 0.0000 0.0000 -0.0000 0.0000 -8.7739 -0.7302 0.6951 -58.6153 -10.7337 11.0632 3.9595 -75.6716 -5.7873 -23.4274 7.8373 -117.0589 -72.3346 -13.8023 3.3653 -59.0772 -2.1533 2.5953 9.3338 0.5525 -0.1696 11.8350 -37.6728 8.7584 -4.7253 -0.2531 -17.9028 9.1909 10.7573 -8.1336 -64.0402 -17.3879 0.7469 -68.4924 -3.2570 0.9848 17.6350 0.9457 0.4282 -70.5843 -11.8673 3.0985 -70.9371 -3.8755 0.7586 8.6979 0.6914 0.2867 -64.9588 -8.4171 2.9553 -66.8567 -2.1819 3.3712 11.4696 0.7213 -0.2263 -0.6157 16.3373 7.6101 61.0825 2.2231 12.5224 -170.0301 79.2663 -172.1762 31.8774 -3.7616 -16.5560 75.2158 -2.5063 5.2002 101.2876 3.2038 6.4780 92.7352 3.4544 5.8808 20.0727 30.2083 66.9121 1.4983 -33.0517 -16.8361 -43.3648 -49.6003 38.6483 13.9317 12.6993 -1.4469 47.7815 3.4117 0.5004 100.0439 5.3397 3.7176 77.3158 3.7007 4.9834 80.2202 5.5042 2.1031 28.9778 2.2389 -0.1758 81.9223 -0.4948 5.7336 48.0813 2.9325 2.5190 78.8131 3.3829 5.0209 2.1531 -6.1959 -1.8465 0.5953 2.2539 12.5227 -5.2558 -0.0181 -6.8052 0.0000 0.0000 -0.1911 -4.9279 5.9483 -31.5917 5.3284 -2.4032 44.5198 -2.8398 4.6666 1.1193 0.0000 -0.0000 0.8968 
0.4586 98.7581 -1.4226 2.4748 1.8431 -3.5681 -0.0811 -4.0775 8.2639 -1.7573 -0.8413 2.8031 -1.7843 -0.8344 2.8206 3.4937 -0.6982 -0.4476 -1.1081 1.4462 -14.2223 0.0000 -0.0000 0.0000 0.0000 -0.0000 0.0000 0.0000 -0.0000 0.0000 -8.7739 -0.7302 0.6951 -58.0658 -10.4922 10.5836 4.5508 -76.9796 -6.3957 -23.7520 8.8498 -117.3315 -72.3346 -13.8023 3.3653 -59.0772 -2.1533 2.5953 9.3338 0.5526 -0.1696 11.8350 -37.6728 8.7584 -4.7253 -0.2532 -17.9028 9.1909 10.7573 -8.1336 -64.0402 -17.3879 0.7469 -68.4924 -3.2570 0.9849 17.6350 0.9457 0.4282 -70.5843 -11.8673 3.0985 -70.9371 -3.8755 0.7586 8.6979 0.6914 0.2867 -64.9588 -8.4171 2.9553 -66.8567 -2.1818 3.3712 11.4696 0.7213 -0.2263 -0.4264 16.4893 7.6447 60.9456 2.3444 12.4324 -170.3817 78.7667 -172.5343 31.8182 -3.8392 -17.0323 75.2157 -2.5063 5.2002 101.2876 3.2038 6.4780 92.7353 3.4544 5.8808 20.0727 30.2083 66.9121 1.4983 -33.0517 -16.8361 -43.3648 -49.6003 38.6483 13.9317 12.6993 -1.4469 47.7815 3.4117 0.5004 100.0439 5.3396 3.7176 77.3158 3.7007 4.9834 80.2202 5.5042 2.1030 28.9778 2.2389 -0.1758 81.9223 -0.4948 5.7335 48.0813 2.9325 2.5190 78.8131 3.3829 5.0209 1.6258 -6.1182 0.4379 0.8936 2.6223 11.8350 -5.2574 -0.1773 -8.6997 0.0000 -0.0000 -0.4106 -5.9545 6.5139 -32.0355 4.8215 -1.3275 34.0269 -2.4921 4.0051 1.5598 0.0000 0.0000 0.9619 
